<?xml version="1.0" standalone="no"?>
<!DOCTYPE svg PUBLIC "-//W3C//DTD SVG 20010904//EN"
 "http://www.w3.org/TR/2001/REC-SVG-20010904/DTD/svg10.dtd">
<svg version="1.0" xmlns="http://www.w3.org/2000/svg"
 width="192.000000pt" height="192.000000pt" viewBox="0 0 192.000000 192.000000"
 preserveAspectRatio="xMidYMid meet">

<g transform="translate(0.000000,192.000000) scale(0.100000,-0.100000)"
fill="#000000" stroke="none">
<path d="M170 1906 c0 -8 -8 -21 -18 -28 -10 -7 -27 -36 -37 -65 -18 -50 -18
-58 -2 -176 9 -68 23 -142 32 -163 26 -60 66 -137 81 -155 17 -19 18 -106 3
-146 -6 -15 -15 -56 -20 -91 -5 -35 -16 -77 -25 -93 -10 -21 -15 -59 -15 -123
-1 -80 3 -98 26 -141 14 -27 32 -56 40 -65 8 -9 15 -21 15 -26 0 -5 14 -20 31
-34 18 -14 39 -32 48 -40 22 -20 67 -51 110 -75 22 -13 39 -31 44 -50 15 -50
39 -98 77 -150 49 -69 90 -133 90 -142 1 -11 100 -89 133 -104 15 -7 27 -18
27 -26 0 -10 31 -13 150 -13 127 0 150 2 150 15 0 8 4 15 8 15 13 0 102 60
128 87 13 13 36 44 51 71 15 26 43 70 63 97 38 52 62 99 77 150 5 19 22 37 44
50 88 49 175 121 206 171 56 87 66 118 65 211 0 64 -5 102 -16 125 -9 18 -21
60 -25 93 -5 33 -14 73 -20 88 -14 36 -14 134 -1 142 6 4 20 25 32 48 50 95
69 157 85 275 16 118 15 126 -2 175 -10 29 -27 58 -37 65 -10 7 -18 20 -18 28
0 11 -16 14 -70 14 -54 0 -70 -3 -70 -14 0 -13 -65 -55 -155 -103 -107 -56
-152 -64 -210 -34 -21 12 -53 21 -70 21 -16 1 -59 7 -95 15 -36 8 -90 14 -120
14 -30 0 -84 -6 -120 -14 -36 -8 -79 -14 -95 -15 -17 0 -49 -9 -70 -21 -44
-22 -104 -21 -153 4 -121 61 -212 118 -212 133 0 11 -16 14 -70 14 -54 0 -70
-3 -70 -14z m360 -752 c0 -25 25 -38 75 -39 42 0 45 -29 5 -50 -36 -19 -70
-10 -109 26 -24 22 -30 94 -8 102 18 7 37 -13 37 -39z m908 12 c6 -51 -6 -75
-50 -97 -39 -20 -43 -20 -75 -5 -49 23 -42 51 13 52 53 1 64 9 64 44 0 47 43
52 48 6z"/>
</g>
</svg>
